<svg width="20" height="17" viewBox="0 0 20 17" fill="none" xmlns="http://www.w3.org/2000/svg">
<path d="M18.4576 4.16453C18.4679 4.34961 18.4679 4.5347 18.4679 4.70953C18.4653 5.8482 18.299 6.98058 17.9743 8.07195C17.2899 10.587 15.7873 12.8025 13.7036 14.3685C11.62 15.9345 9.07403 16.7618 6.46784 16.7198C4.1736 16.7224 1.92751 16.0618 0 14.8175C0.334303 14.8588 0.670848 14.8794 1.0077 14.8792C2.90613 14.881 4.74987 14.2435 6.2417 13.0694C5.36301 13.0529 4.51136 12.7627 3.80541 12.2392C3.09947 11.7158 2.5744 10.9851 2.30338 10.1491C2.56501 10.1939 2.82976 10.218 3.09518 10.2211C3.47416 10.2225 3.85145 10.1706 4.21596 10.0668C3.31353 9.88816 2.49475 9.4181 1.88542 8.72888C1.27609 8.03967 0.909925 7.16944 0.8432 6.25192C0.826102 6.14658 0.819207 6.03983 0.82261 5.93316V5.88174C1.40864 6.20793 2.06475 6.38784 2.73519 6.40617C2.15813 6.02152 1.68525 5.50003 1.35871 4.88821C1.03218 4.2764 0.862145 3.59327 0.86378 2.89977C0.863043 2.15303 1.05804 1.41913 1.42932 0.771229C2.48834 2.07609 3.81029 3.14328 5.30912 3.90332C6.80795 4.66337 8.45005 5.09922 10.1285 5.18252C9.91613 4.2777 10.0085 3.32808 10.3913 2.48115C10.774 1.63422 11.4258 0.93741 12.2453 0.49895C13.0648 0.0604896 14.0061 -0.0950718 14.9231 0.0564305C15.84 0.207933 16.6813 0.658018 17.3162 1.33677C18.263 1.14992 19.1708 0.802118 20 0.308489C20.0357 1.02438 19.9163 1.73953 19.6501 2.40504C19.3839 3.07055 18.9771 3.67073 18.4576 4.16453Z" fill="#FF6838"/>
</svg>
