<svg width="20" height="20" viewBox="0 0 20 20" fill="none" xmlns="http://www.w3.org/2000/svg">
<path d="M19.9395 5.87719C19.9231 5.04765 19.766 4.22691 19.475 3.44993C19.2235 2.78282 18.8299 2.17837 18.3215 1.67847C17.8224 1.16961 17.2181 0.775945 16.5509 0.525C15.774 0.233783 14.9532 0.076727 14.1236 0.06054C13.0574 0.012 12.7165 0 10.0008 0C7.28515 0 6.94402 0.01126 5.87718 0.06054C5.04765 0.0769324 4.22691 0.233982 3.44993 0.525C2.78263 0.776174 2.17811 1.1698 1.67847 1.67847C1.16933 2.17771 0.775653 2.78235 0.52507 3.44993C0.234055 4.22692 0.077006 5.04765 0.0606101 5.87719C0.0113201 6.94341 0 7.28432 0 10C0 12.7157 0.01132 13.0565 0.06059 14.1228C0.0769888 14.9523 0.234045 15.7731 0.52507 16.5501C0.775725 17.2176 1.1694 17.8222 1.67847 18.3215C2.17835 18.8299 2.7828 19.2234 3.44993 19.4749C4.22694 19.7659 5.04766 19.9229 5.87718 19.9394C6.94402 19.9879 7.28432 20 10 20C12.7157 20 13.0566 19.9887 14.1228 19.9394C14.9523 19.923 15.7731 19.766 16.5501 19.4749C17.2145 19.2181 17.8179 18.8252 18.3215 18.3215C18.8252 17.8178 19.2181 17.2145 19.475 16.5501C19.7663 15.7732 19.9234 14.9523 19.9395 14.1228C19.988 13.0558 19.9992 12.7157 19.9992 10C19.9992 7.28432 19.988 6.94341 19.9395 5.87719ZM18.1405 14.0413C18.1328 14.6754 18.0164 15.3035 17.7965 15.8983C17.63 16.3296 17.3751 16.7212 17.0482 17.048C16.7213 17.3748 16.3295 17.6295 15.8982 17.7957C15.3035 18.0162 14.6753 18.1326 14.0411 18.1397C12.987 18.1882 12.6705 18.1979 9.99994 18.1979C7.32943 18.1979 7.01371 18.1882 5.95994 18.1397C5.32576 18.1325 4.69756 18.0161 4.10286 17.7957C3.66851 17.6352 3.27552 17.3797 2.95262 17.0477C2.62021 16.7256 2.36456 16.3327 2.20462 15.8983C1.98414 15.3037 1.86778 14.6754 1.86062 14.0413C1.81212 12.9872 1.80247 12.6706 1.80247 10.0001C1.80247 7.32956 1.81296 7.01384 1.86062 5.95887C1.86861 5.32479 1.98495 4.69674 2.20462 4.10187C2.36513 3.66751 2.6207 3.27452 2.95262 2.95163C3.27495 2.61903 3.66811 2.36336 4.10286 2.20363C4.69754 1.98318 5.32575 1.86681 5.95994 1.85963C7.01401 1.81114 7.33062 1.80148 9.99994 1.80148C12.6693 1.80148 12.9862 1.81197 14.0411 1.85963C14.6752 1.86762 15.3033 1.98396 15.8982 2.20363C16.3297 2.36988 16.7215 2.6247 17.0484 2.95164C17.3754 3.27859 17.6302 3.67043 17.7965 4.10188C18.0169 4.69654 18.1333 5.32472 18.1405 5.95888C18.189 7.01388 18.1986 7.32962 18.1986 10.0001C18.1986 12.6705 18.189 12.9863 18.1405 14.0413H18.1405Z" fill="#FF6838"/>
<path d="M10.0021 4.86523C8.98649 4.86523 7.99372 5.16639 7.14929 5.73062C6.30486 6.29485 5.64671 7.09681 5.25806 8.03509C4.86941 8.97337 4.76772 10.0058 4.96586 11.0019C5.16399 11.998 5.65304 12.9129 6.37116 13.631C7.08929 14.3492 8.00424 14.8382 9.00031 15.0363C9.99638 15.2345 11.0288 15.1328 11.9671 14.7441C12.9054 14.3555 13.7074 13.6973 14.2716 12.8529C14.8358 12.0085 15.137 11.0157 15.137 10.0001C15.137 9.3258 15.0042 8.65807 14.7461 8.03507C14.4881 7.41207 14.1098 6.846 13.633 6.36918C13.1562 5.89236 12.5901 5.51413 11.9671 5.25608C11.3441 4.99803 10.6764 4.86522 10.0021 4.86523ZM10.0021 13.3337C9.34276 13.3337 8.69824 13.1382 8.15003 12.7719C7.60182 12.4056 7.17455 11.8849 6.92224 11.2758C6.66993 10.6667 6.60392 9.99638 6.73255 9.34972C6.86118 8.70307 7.17868 8.10908 7.64489 7.64287C8.11111 7.17666 8.7051 6.85917 9.35176 6.73054C9.99842 6.60192 10.6687 6.66794 11.2778 6.92026C11.887 7.17258 12.4076 7.59986 12.7739 8.14807C13.1402 8.69628 13.3357 9.3408 13.3357 10.0001C13.3357 10.4379 13.2496 10.8714 13.082 11.2759C12.9145 11.6804 12.669 12.0479 12.3594 12.3574C12.0498 12.667 11.6823 12.9126 11.2779 13.0801C10.8734 13.2476 10.4399 13.3338 10.0021 13.3337Z" fill="#FF6838"/>
<path d="M15.3406 3.46289H15.3402C15.022 3.46295 14.7169 3.5894 14.4919 3.81442C14.267 4.03944 14.1406 4.34461 14.1406 4.66279C14.1407 4.98098 14.2671 5.28612 14.4921 5.5111C14.7171 5.73608 15.0222 5.86247 15.3404 5.86247C15.6586 5.86247 15.9638 5.73608 16.1888 5.5111C16.4138 5.28612 16.5402 4.98098 16.5402 4.66279C16.5402 4.34461 16.4139 4.03944 16.1889 3.81442C15.964 3.5894 15.6588 3.46295 15.3406 3.46289Z" fill="#FF6838"/>
</svg>
