<svg width="20" height="20" viewBox="0 0 20 20" fill="none" xmlns="http://www.w3.org/2000/svg">
<path d="M2.69421 4.73283H2.66605C2.35943 4.75132 2.05229 4.7064 1.76381 4.60087C1.47533 4.49533 1.2117 4.33146 0.989395 4.11948C0.767086 3.90749 0.590868 3.65195 0.471746 3.36881C0.352624 3.08567 0.293156 2.78102 0.297055 2.47386C0.300954 2.16671 0.368137 1.86366 0.494408 1.58363C0.620679 1.30361 0.803327 1.05263 1.03095 0.846354C1.25856 0.640082 1.52627 0.482953 1.81733 0.384779C2.1084 0.286606 2.41658 0.249495 2.72263 0.275765C3.0302 0.25349 3.33905 0.29509 3.62977 0.39795C3.92048 0.500809 4.18677 0.662703 4.41189 0.873452C4.63701 1.0842 4.8161 1.33925 4.93788 1.62255C5.05967 1.90586 5.12152 2.2113 5.11956 2.51967C5.11759 2.82804 5.05185 3.13266 4.92646 3.41439C4.80107 3.69613 4.61875 3.94887 4.39096 4.15673C4.16317 4.36459 3.89483 4.52308 3.60283 4.62222C3.31083 4.72136 3.00147 4.75902 2.69421 4.73283Z" fill="#1A8DFF"/>
<path d="M4.71094 7.73242H0.710938V19.7324H4.71094V7.73242Z" fill="#1A8DFF"/>
<path d="M15.2109 7.73242C14.5369 7.73426 13.872 7.88843 13.2659 8.18341C12.6598 8.47838 12.1283 8.90653 11.7109 9.43585V7.73242H7.71094V19.7324H11.7109V14.2324C11.7109 13.702 11.9217 13.1933 12.2967 12.8182C12.6718 12.4431 13.1805 12.2324 13.7109 12.2324C14.2414 12.2324 14.7501 12.4431 15.1252 12.8182C15.5002 13.1933 15.7109 13.702 15.7109 14.2324V19.7324H19.7109V12.2324C19.7109 11.6415 19.5945 11.0563 19.3684 10.5103C19.1422 9.96438 18.8108 9.46831 18.3929 9.05044C17.9751 8.63258 17.479 8.30111 16.933 8.07496C16.387 7.84882 15.8019 7.73242 15.2109 7.73242Z" fill="#1A8DFF"/>
</svg>
