<svg width="20" height="18" viewBox="0 0 20 18" fill="none" xmlns="http://www.w3.org/2000/svg">
<path d="M18.4576 4.8032C18.4679 4.98828 18.4679 5.17337 18.4679 5.3482C18.4653 6.48687 18.299 7.61925 17.9743 8.71062C17.2899 11.2257 15.7873 13.4412 13.7036 15.0072C11.62 16.5732 9.07403 17.4005 6.46784 17.3585C4.1736 17.3611 1.92751 16.7004 0 15.4561C0.334303 15.4975 0.670848 15.5181 1.0077 15.5178C2.90613 15.5197 4.74987 14.8821 6.2417 13.7081C5.36301 13.6916 4.51136 13.4014 3.80541 12.8779C3.09947 12.3544 2.5744 11.6238 2.30338 10.7878C2.56501 10.8326 2.82976 10.8567 3.09518 10.8598C3.47416 10.8612 3.85145 10.8093 4.21596 10.7055C3.31353 10.5268 2.49475 10.0568 1.88542 9.36755C1.27609 8.67834 0.909925 7.80811 0.8432 6.89059C0.826102 6.78525 0.819207 6.6785 0.82261 6.57183V6.52041C1.40864 6.8466 2.06475 7.02651 2.73519 7.04484C2.15813 6.66019 1.68525 6.1387 1.35871 5.52689C1.03218 4.91507 0.862145 4.23194 0.86378 3.53844C0.863043 2.7917 1.05804 2.0578 1.42932 1.4099C2.48834 2.71476 3.81029 3.78195 5.30912 4.54199C6.80795 5.30204 8.45005 5.7379 10.1285 5.82119C9.91613 4.91638 10.0085 3.96675 10.3913 3.11982C10.774 2.2729 11.4258 1.57608 12.2453 1.13762C13.0648 0.699161 14.0061 0.5436 14.9231 0.695102C15.84 0.846605 16.6813 1.29669 17.3162 1.97544C18.263 1.78859 19.1708 1.44079 20 0.947161C20.0357 1.66305 19.9163 2.3782 19.6501 3.04371C19.3839 3.70923 18.9771 4.3094 18.4576 4.8032Z" fill="#34C065"/>
</svg>
