<svg width="22" height="16" viewBox="0 0 22 16" fill="none" xmlns="http://www.w3.org/2000/svg">
<path d="M21.9731 5.72021C22.0197 4.28887 21.7056 2.86877 21.0596 1.59063C20.6279 1.05724 20.0193 0.6964 19.3442 0.57348C16.5721 0.33282 13.7895 0.23498 11.0074 0.28045C8.22538 0.23474 5.44289 0.33258 2.67099 0.57348C2.12186 0.67602 1.61344 0.93316 1.20536 1.31469C0.310695 2.14404 0.245385 3.56561 0.110685 4.76312C-0.036895 6.92157 -0.036895 9.08764 0.110685 11.2461C0.135035 11.922 0.236235 12.593 0.412325 13.246C0.531585 13.7516 0.774505 14.2198 1.11923 14.6084C1.52737 15.0106 2.04697 15.2808 2.61063 15.3839C4.76645 15.6509 6.93894 15.7605 9.11075 15.7116V15.7117C12.6048 15.7676 15.6835 15.7084 19.309 15.4357C19.8885 15.3363 20.4238 15.0627 20.8437 14.6513C21.1164 14.3801 21.323 14.0496 21.4474 13.6856C21.8089 12.5903 21.9865 11.4427 21.9731 10.2894C22.0073 9.69433 22.0073 6.3153 21.9731 5.72021ZM14.6627 7.78051C14.6615 7.77984 14.6602 7.77917 14.659 7.7785C13.8298 8.23779 12.8714 8.72479 11.8609 9.23755C10.8457 9.75269 9.7789 10.2936 8.74014 10.8583V4.66845V4.66839C9.72726 5.18572 10.7036 5.69433 11.6854 6.20825C12.6659 6.72156 13.6518 7.24023 14.659 7.7785C14.6628 7.77636 14.6674 7.77411 14.6713 7.77197L14.6627 7.78051Z" fill="#FF3E44"/>
<path d="M14.6648 7.38164C12.6478 6.30372 10.7164 5.30418 8.74219 4.26953V10.4595C10.8196 9.33013 13.0098 8.29546 14.6734 7.37307L14.6648 7.38164Z" fill="#FFB29A"/>
</svg>
